<svg enable-background="new 0 0 256 256" viewBox="0 0 256 256" xmlns="http://www.w3.org/2000/svg"><path d="m180.6 187.7-18.3-30.2c3.4-11.6 6-24.7 6-37.5 0-1.7 0-3.4-.1-5-1.9-33.7-14.9-45.8-24.6-55.5-4.6-4.6-8.1-8.6-10.6-14.2 0-.1-.1-.2-.1-.3 1.7-.3 3.1-.7 4.1-1.4 1.8-1.1 2.7-2.9 2.7-5.1l-.5-1.2c-.8-.8-3.1-1.3-6.9-1.4-.3-2-.3-3.9.1-6.5.1-1.2.1-1.2 1.8-1.4h.3c1.2-.1 1.7-.8 2-1.3.7-1.3-.2-2.8-.7-3.7 0 0-.2-.3-.2-.3l-.2-.6c-2.6-6.5-4-11-4-13.5 0-3.2-.8-4.1-1.4-4.4-.5-.3-1.1-.3-1.6 0-.3.2-1.4.8-1.4 4.4 0 1.7-.7 5.4-4 13.6 0 0-.2.4-.2.4l-.2.3c-.4.7-1 1.7-1 2.7 0 .3.1.7.2 1 .2.5.8 1.1 2 1.3h.3c1.7.2 1.7.2 1.8 1.4.2 1.5.3 2.8.3 4 0 .9-.1 1.7-.2 2.5-3.8.2-6.1.6-6.9 1.4l-.5 1.2c0 2.2.9 4 2.7 5.1 1 .7 2.4 1.1 4.1 1.4 0 .1-.1.2-.1.3-2.4 5.7-6.5 9.7-11.1 14.3-9.7 9.7-22.7 21.7-24.6 55.3-.1 1.7-.1 3.3-.1 5 0 12.8 2.7 25.8 6 37.5l-18.3 30.2-11.1 64.2h12.5l11.7-40.8 19.6-16.4.7.3c.7.3 1.4.5 2.2.7.3 2 .7 4.2 1 5.5.2 1 .7 3.5 9.9 4.1v46.6h10.3v-46.6c9.7-.6 10.1-3.1 10.3-4.1.3-1.3.6-3.5 1-5.5.8-.2 1.5-.4 2.2-.7l.4-.2 19.5 16.3 11.7 40.8h12.5z" fill="#b4fff4"/></svg>